<svg width="224" height="24" viewBox="0 0 224 24" fill="none" xmlns="http://www.w3.org/2000/svg">
<path d="M4.18211 17.2014H11.7065V19.7689H0V17.8244L0.0377076 17.7851L7.32555 9.71225H0.250241V7.14153H11.5077V9.08924L11.47 9.12859L4.18211 17.2014ZM20.3381 9.46961C18.343 9.46961 16.9136 10.5254 16.4885 12.3026H24.0334C23.6701 10.4992 22.3332 9.46961 20.3381 9.46961ZM20.3381 6.89889C22.3126 6.89889 24.054 7.59075 25.2401 8.84988C26.5256 10.2107 27.1014 12.1682 26.8649 14.3618L26.8204 14.775H16.5365C17.037 16.4932 18.5384 17.4375 20.7906 17.4375C22.2543 17.4375 23.5055 16.9752 24.6162 16.0243L25.0721 15.6374L26.3747 17.9425L26.0731 18.1851C24.5065 19.4311 22.8439 20.0115 20.842 20.0115C16.4885 20.0115 13.5644 17.3687 13.5644 13.4339C13.561 9.64667 16.4131 6.89889 20.3381 6.89889ZM29.5524 17.9163H32.4148V1H29.5524V17.9163ZM34.7287 21.9592H37.591V5.04298H34.7287V21.9592ZM50.3979 12.3026C50.0345 10.4992 48.6976 9.46961 46.7025 9.46961C44.7074 9.46961 43.278 10.5254 42.8529 12.3026H50.3979ZM46.7025 6.89889C48.677 6.89889 50.4184 7.59075 51.6045 8.84988C52.89 10.2107 53.4659 12.1715 53.2294 14.3618L53.1848 14.775H42.9009C43.4014 16.4932 44.9028 17.4375 47.155 17.4375C48.6187 17.4375 49.87 16.9752 50.9806 16.0243L51.4365 15.6374L52.7357 17.9425L52.4341 18.1851C50.8675 19.4311 49.2084 20.0115 47.203 20.0115C42.8495 20.0115 39.9254 17.3687 39.9254 13.4339C39.9254 9.64667 42.7741 6.89889 46.7025 6.89889ZM63.5304 6.89889C61.6039 6.85298 60.0818 7.40713 58.8786 8.59084V7.13825H56.0163V19.7689H58.8786V12.083C60.1161 9.79422 62.7385 9.61388 63.5132 9.61388L64 9.62044V6.912L63.5304 6.89889Z" fill="white"/>
</svg>
